<svg xmlns="http://www.w3.org/2000/svg" xmlns:xlink="http://www.w3.org/1999/xlink" width="500" zoomAndPan="magnify" viewBox="0 0 375 374.999991" height="500" preserveAspectRatio="xMidYMid meet" version="1.0"><defs><g/><clipPath id="d17aee8ca4"><path d="M 0 15.488281 L 71.257812 15.488281 L 71.257812 21.34375 L 0 21.34375 Z M 0 21.34375 L 5.855469 21.34375 L 5.855469 86.746094 L 0 86.746094 Z M 0 21.34375 " clip-rule="nonzero"/></clipPath><clipPath id="104be58760"><path d="M 369.136719 288.25 L 374.992188 288.25 L 374.992188 353.648438 L 369.136719 353.648438 Z M 303.738281 353.648438 L 374.992188 353.648438 L 374.992188 359.503906 L 303.738281 359.503906 Z M 303.738281 353.648438 " clip-rule="nonzero"/></clipPath><clipPath id="2ce70880a7"><path d="M 303.738281 15.488281 L 374.992188 15.488281 L 374.992188 21.34375 L 303.738281 21.34375 Z M 369.136719 21.34375 L 374.992188 21.34375 L 374.992188 86.746094 L 369.136719 86.746094 Z M 369.136719 21.34375 " clip-rule="nonzero"/></clipPath><clipPath id="4eb9956f07"><path d="M 0 288.25 L 5.855469 288.25 L 5.855469 300.839844 L 0 300.839844 Z M 0 300.839844 L 5.855469 300.839844 L 5.855469 353.648438 L 0 353.648438 Z M 0 353.648438 L 71.257812 353.648438 L 71.257812 359.503906 L 0 359.503906 Z M 0 353.648438 " clip-rule="nonzero"/></clipPath><clipPath id="9a567cf402"><path d="M 307.949219 52.414062 L 338.074219 52.414062 L 338.074219 82.539062 L 307.949219 82.539062 Z M 307.949219 52.414062 " clip-rule="nonzero"/></clipPath><clipPath id="4cfdec98d4"><path d="M 323.011719 52.414062 C 314.691406 52.414062 307.949219 59.15625 307.949219 67.476562 C 307.949219 75.792969 314.691406 82.539062 323.011719 82.539062 C 331.332031 82.539062 338.074219 75.792969 338.074219 67.476562 C 338.074219 59.15625 331.332031 52.414062 323.011719 52.414062 " clip-rule="nonzero"/></clipPath></defs><g clip-path="url(#d17aee8ca4)"><path fill="#ffffff" d="M 0 15.488281 L 71.257812 15.488281 L 71.257812 86.746094 L 0 86.746094 Z M 0 15.488281 " fill-opacity="1" fill-rule="nonzero"/></g><g clip-path="url(#104be58760)"><path fill="#ffffff" d="M 374.992188 359.503906 L 303.738281 359.503906 L 303.738281 288.25 L 374.992188 288.25 Z M 374.992188 359.503906 " fill-opacity="1" fill-rule="nonzero"/></g><g clip-path="url(#2ce70880a7)"><path fill="#ffffff" d="M 374.992188 15.488281 L 374.992188 86.746094 L 303.738281 86.746094 L 303.738281 15.488281 Z M 374.992188 15.488281 " fill-opacity="1" fill-rule="nonzero"/></g><g clip-path="url(#4eb9956f07)"><path fill="#ffffff" d="M 0 359.503906 L 0 288.25 L 71.257812 288.25 L 71.257812 359.503906 Z M 0 359.503906 " fill-opacity="1" fill-rule="nonzero"/></g><g clip-path="url(#9a567cf402)"><g clip-path="url(#4cfdec98d4)"><path fill="#ff0000" d="M 307.949219 52.414062 L 338.074219 52.414062 L 338.074219 82.539062 L 307.949219 82.539062 Z M 307.949219 52.414062 " fill-opacity="1" fill-rule="nonzero"/></g></g><g fill="#ffffff" fill-opacity="1"><g transform="translate(41.696647, 294.735165)"><g><path d="M 31.125 -5.1875 L 29.828125 -5.1875 C 29.441406 -4.375 28.972656 -3.59375 28.421875 -2.84375 C 27.867188 -2.101562 27.148438 -1.441406 26.265625 -0.859375 C 25.378906 -0.285156 24.320312 0.164062 23.09375 0.5 C 21.875 0.84375 20.398438 1.015625 18.671875 1.015625 C 16.453125 1.015625 14.394531 0.617188 12.5 -0.171875 C 10.601562 -0.972656 8.945312 -2.148438 7.53125 -3.703125 C 6.113281 -5.265625 5.007812 -7.175781 4.21875 -9.4375 C 3.425781 -11.695312 3.03125 -14.289062 3.03125 -17.21875 L 3.03125 -18.515625 C 3.03125 -21.398438 3.445312 -23.972656 4.28125 -26.234375 C 5.125 -28.492188 6.273438 -30.398438 7.734375 -31.953125 C 9.203125 -33.515625 10.910156 -34.703125 12.859375 -35.515625 C 14.804688 -36.335938 16.863281 -36.75 19.03125 -36.75 C 21.90625 -36.75 24.179688 -36.207031 25.859375 -35.125 C 27.546875 -34.050781 28.867188 -32.523438 29.828125 -30.546875 L 31.125 -30.546875 L 31.125 -35.75 L 40.203125 -35.75 L 40.203125 8.796875 C 40.203125 10.421875 39.6875 11.757812 38.65625 12.8125 C 37.625 13.875 36.289062 14.40625 34.65625 14.40625 L 10.59375 14.40625 L 10.59375 5.765625 L 29.1875 5.765625 C 30.476562 5.765625 31.125 5.046875 31.125 3.609375 Z M 21.625 -7.640625 C 24.457031 -7.640625 26.75 -8.539062 28.5 -10.34375 C 30.25 -12.144531 31.125 -14.507812 31.125 -17.4375 L 31.125 -18.296875 C 31.125 -21.234375 30.25 -23.601562 28.5 -25.40625 C 26.75 -27.207031 24.457031 -28.109375 21.625 -28.109375 C 18.78125 -28.109375 16.484375 -27.226562 14.734375 -25.46875 C 12.984375 -23.71875 12.109375 -21.328125 12.109375 -18.296875 L 12.109375 -17.4375 C 12.109375 -14.414062 12.984375 -12.023438 14.734375 -10.265625 C 16.484375 -8.515625 18.78125 -7.640625 21.625 -7.640625 Z M 21.625 -7.640625 "/></g></g></g><g fill="#ffffff" fill-opacity="1"><g transform="translate(85.796868, 294.735165)"><g><path d="M 14.703125 0 L 5.625 0 L 5.625 -35.75 L 14.703125 -35.75 L 14.703125 -30.40625 L 16 -30.40625 C 16.8125 -32.425781 18.128906 -33.988281 19.953125 -35.09375 C 21.785156 -36.195312 23.925781 -36.75 26.375 -36.75 C 28.101562 -36.75 29.722656 -36.472656 31.234375 -35.921875 C 32.753906 -35.367188 34.085938 -34.515625 35.234375 -33.359375 C 36.390625 -32.210938 37.289062 -30.75 37.9375 -28.96875 C 38.582031 -27.1875 38.90625 -25.070312 38.90625 -22.625 L 38.90625 0 L 29.828125 0 L 29.828125 -20.328125 C 29.828125 -22.867188 29.210938 -24.867188 27.984375 -26.328125 C 26.765625 -27.796875 25.003906 -28.53125 22.703125 -28.53125 C 20.015625 -28.53125 18.007812 -27.628906 16.6875 -25.828125 C 15.363281 -24.023438 14.703125 -21.613281 14.703125 -18.59375 Z M 14.703125 0 "/></g></g></g><g fill="#ffffff" fill-opacity="1"><g transform="translate(129.897089, 294.735165)"><g><path d="M 28.890625 -4.75 L 30.1875 -4.75 L 30.1875 -50.4375 L 39.703125 -50.4375 L 39.703125 0 L 21.109375 0 L 15.203125 -45.6875 L 13.90625 -45.6875 L 13.90625 0 L 4.390625 0 L 4.390625 -50.4375 L 22.984375 -50.4375 Z M 28.890625 -4.75 "/></g></g></g><g fill="#ffffff" fill-opacity="1"><g transform="translate(173.99731, 294.735165)"><g><path d="M 13.625 -14.921875 C 13.664062 -13.859375 13.914062 -12.882812 14.375 -12 C 14.832031 -11.113281 15.457031 -10.34375 16.25 -9.6875 C 17.039062 -9.039062 17.953125 -8.535156 18.984375 -8.171875 C 20.015625 -7.816406 21.109375 -7.640625 22.265625 -7.640625 C 24.523438 -7.640625 26.253906 -8.035156 27.453125 -8.828125 C 28.648438 -9.617188 29.515625 -10.566406 30.046875 -11.671875 L 37.828125 -7.34375 C 37.398438 -6.4375 36.800781 -5.488281 36.03125 -4.5 C 35.257812 -3.519531 34.257812 -2.617188 33.03125 -1.796875 C 31.8125 -0.984375 30.320312 -0.3125 28.5625 0.21875 C 26.8125 0.75 24.757812 1.015625 22.40625 1.015625 C 19.71875 1.015625 17.269531 0.582031 15.0625 -0.28125 C 12.851562 -1.144531 10.941406 -2.394531 9.328125 -4.03125 C 7.722656 -5.664062 6.472656 -7.660156 5.578125 -10.015625 C 4.691406 -12.367188 4.25 -15.035156 4.25 -18.015625 L 4.25 -18.453125 C 4.25 -21.191406 4.71875 -23.6875 5.65625 -25.9375 C 6.59375 -28.195312 7.878906 -30.117188 9.515625 -31.703125 C 11.148438 -33.285156 13.054688 -34.519531 15.234375 -35.40625 C 17.421875 -36.300781 19.765625 -36.75 22.265625 -36.75 C 25.335938 -36.75 27.976562 -36.207031 30.1875 -35.125 C 32.40625 -34.050781 34.234375 -32.679688 35.671875 -31.015625 C 37.109375 -29.359375 38.160156 -27.535156 38.828125 -25.546875 C 39.503906 -23.554688 39.84375 -21.625 39.84375 -19.75 L 39.84375 -14.921875 Z M 22.1875 -28.53125 C 19.882812 -28.53125 18.007812 -27.941406 16.5625 -26.765625 C 15.125 -25.585938 14.191406 -24.234375 13.765625 -22.703125 L 30.625 -22.703125 C 30.332031 -24.378906 29.429688 -25.769531 27.921875 -26.875 C 26.410156 -27.976562 24.5 -28.53125 22.1875 -28.53125 Z M 22.1875 -28.53125 "/></g></g></g><g fill="#ffffff" fill-opacity="1"><g transform="translate(218.097532, 294.735165)"><g><path d="M 40.640625 0 L 24.9375 0 L 22.921875 -27.09375 L 22.921875 -31.421875 L 21.1875 -31.421875 L 21.1875 -27.09375 L 19.171875 0 L 3.453125 0 L 1.078125 -35.75 L 9.4375 -35.75 L 11.03125 -8.640625 L 11.03125 -4.328125 L 12.75 -4.328125 L 12.75 -8.640625 L 14.5625 -35.75 L 29.546875 -35.75 L 31.34375 -8.640625 L 31.34375 -4.328125 L 33.078125 -4.328125 L 33.078125 -8.640625 L 34.65625 -35.75 L 43.015625 -35.75 Z M 40.640625 0 "/></g></g></g><g fill="#ffffff" fill-opacity="1"><g transform="translate(262.197753, 294.735165)"><g><path d="M 17 -25.65625 C 17 -24.5 17.597656 -23.664062 18.796875 -23.15625 C 20.003906 -22.65625 22.191406 -22.238281 25.359375 -21.90625 C 29.015625 -21.519531 31.992188 -20.425781 34.296875 -18.625 C 36.609375 -16.820312 37.765625 -14.3125 37.765625 -11.09375 L 37.765625 -10.671875 C 37.765625 -7.109375 36.46875 -4.269531 33.875 -2.15625 C 31.28125 -0.0390625 27.628906 1.015625 22.921875 1.015625 C 20.128906 1.015625 17.75 0.65625 15.78125 -0.0625 C 13.8125 -0.789062 12.175781 -1.691406 10.875 -2.765625 C 9.582031 -3.847656 8.585938 -5.050781 7.890625 -6.375 C 7.191406 -7.695312 6.722656 -8.984375 6.484375 -10.234375 L 14.84375 -12.96875 C 15.226562 -11.4375 16.03125 -10.09375 17.25 -8.9375 C 18.476562 -7.78125 20.367188 -7.203125 22.921875 -7.203125 C 25.171875 -7.203125 26.71875 -7.550781 27.5625 -8.25 C 28.40625 -8.945312 28.828125 -9.703125 28.828125 -10.515625 C 28.828125 -10.992188 28.71875 -11.4375 28.5 -11.84375 C 28.28125 -12.257812 27.882812 -12.644531 27.3125 -13 C 26.738281 -13.363281 25.957031 -13.664062 24.96875 -13.90625 C 23.988281 -14.144531 22.753906 -14.335938 21.265625 -14.484375 C 17.222656 -14.816406 14.015625 -15.859375 11.640625 -17.609375 C 9.265625 -19.367188 8.078125 -21.953125 8.078125 -25.359375 L 8.078125 -25.796875 C 8.078125 -27.578125 8.457031 -29.140625 9.21875 -30.484375 C 9.988281 -31.828125 11 -32.96875 12.25 -33.90625 C 13.5 -34.84375 14.941406 -35.550781 16.578125 -36.03125 C 18.210938 -36.507812 19.894531 -36.75 21.625 -36.75 C 23.875 -36.75 25.828125 -36.472656 27.484375 -35.921875 C 29.148438 -35.367188 30.554688 -34.644531 31.703125 -33.75 C 32.859375 -32.863281 33.796875 -31.878906 34.515625 -30.796875 C 35.234375 -29.722656 35.785156 -28.679688 36.171875 -27.671875 L 27.953125 -24.359375 C 27.523438 -25.648438 26.78125 -26.664062 25.71875 -27.40625 C 24.664062 -28.15625 23.300781 -28.53125 21.625 -28.53125 C 20.082031 -28.53125 18.925781 -28.253906 18.15625 -27.703125 C 17.382812 -27.148438 17 -26.46875 17 -25.65625 Z M 17 -25.65625 "/></g></g></g></svg>